# xmcd
#
# Track frame offsets:
#	150
#	25290
#	45543
#	72705
#	95728
#	116673
#	134118
#	155585
#	174425
#	195723
#
# Disc length: 2886 seconds
#
# Revision: 2
# Processed by: cddbd v1.5.2PL0 Copyright (c) Steve Scherf et al.
# Submitted via: EZCDAudioConverter 8.0.2.1
#
DISCID=960b440a
DTITLE=Chế Linh - Đôi Mắt Người Xưa
DYEAR=1999
DGENRE=Miscellaneous
TTITLE0=Ngày vui qua mau
TTITLE1=Đôi Mắt Người Xưa
TTITLE2=Chuyến tàu hoàng hôn
TTITLE3=Một người đi
TTITLE4=Cho vừa lòng em
TTITLE5=Những bước chân âm thầm
TTITLE6=Như một cơn mê
TTITLE7=Phiên khúc một chiều mưa
TTITLE8=Giận nhau một tuần
TTITLE9=Đoạn cuối tình yêu
EXTD=
EXTT0=
EXTT1=
EXTT2=
EXTT3=
EXTT4=
EXTT5=
EXTT6=
EXTT7=
EXTT8=
EXTT9=
PLAYORDER=
